<mxfile host="65bd71144e">
    <diagram id="QZ-MXoioudwLhQ9d-GXE" name="Page-1">
        <mxGraphModel dx="2070" dy="840" grid="1" gridSize="10" guides="1" tooltips="1" connect="1" arrows="1" fold="1" page="1" pageScale="1" pageWidth="850" pageHeight="1100" math="0" shadow="0">
            <root>
                <mxCell id="0"/>
                <mxCell id="1" parent="0"/>
                <mxCell id="5" value="" style="edgeStyle=orthogonalEdgeStyle;rounded=0;orthogonalLoop=1;jettySize=auto;html=1;" parent="1" source="2" target="3" edge="1">
                    <mxGeometry relative="1" as="geometry"/>
                </mxCell>
                <mxCell id="2" value="App" style="rounded=1;whiteSpace=wrap;html=1;" parent="1" vertex="1">
                    <mxGeometry x="320" y="20" width="130" height="80" as="geometry"/>
                </mxCell>
                <mxCell id="8" value="" style="edgeStyle=orthogonalEdgeStyle;rounded=0;orthogonalLoop=1;jettySize=auto;html=1;" parent="1" source="3" target="6" edge="1">
                    <mxGeometry relative="1" as="geometry"/>
                </mxCell>
                <mxCell id="9" value="" style="edgeStyle=orthogonalEdgeStyle;rounded=0;orthogonalLoop=1;jettySize=auto;html=1;" parent="1" source="3" target="7" edge="1">
                    <mxGeometry relative="1" as="geometry"/>
                </mxCell>
                <mxCell id="Y6MugdShxAgaUpJ7odk5-55" value="" style="edgeStyle=orthogonalEdgeStyle;rounded=0;orthogonalLoop=1;jettySize=auto;html=1;fontSize=15;" parent="1" source="3" target="10" edge="1">
                    <mxGeometry relative="1" as="geometry"/>
                </mxCell>
                <mxCell id="3" value="Has &lt;br&gt;address on keychain?" style="rhombus;whiteSpace=wrap;html=1;rounded=1;" parent="1" vertex="1">
                    <mxGeometry x="330" y="150" width="110" height="110" as="geometry"/>
                </mxCell>
                <mxCell id="Y6MugdShxAgaUpJ7odk5-12" value="" style="edgeStyle=orthogonalEdgeStyle;rounded=0;orthogonalLoop=1;jettySize=auto;html=1;" parent="1" source="6" edge="1">
                    <mxGeometry relative="1" as="geometry">
                        <mxPoint x="605" y="280" as="targetPoint"/>
                    </mxGeometry>
                </mxCell>
                <mxCell id="6" value="Welcome_Screen" style="rounded=1;whiteSpace=wrap;html=1;" parent="1" vertex="1">
                    <mxGeometry x="525" y="165" width="160" height="80" as="geometry"/>
                </mxCell>
                <mxCell id="Y6MugdShxAgaUpJ7odk5-22" value="" style="edgeStyle=orthogonalEdgeStyle;rounded=0;orthogonalLoop=1;jettySize=auto;html=1;" parent="1" source="7" target="Y6MugdShxAgaUpJ7odk5-21" edge="1">
                    <mxGeometry relative="1" as="geometry"/>
                </mxCell>
                <mxCell id="7" value="Swipe_Layout" style="rounded=1;whiteSpace=wrap;html=1;" parent="1" vertex="1">
                    <mxGeometry x="100" y="167.5" width="150" height="75" as="geometry"/>
                </mxCell>
                <mxCell id="10" value="Yes" style="text;html=1;strokeColor=none;fillColor=none;align=center;verticalAlign=middle;whiteSpace=wrap;rounded=0;" parent="1" vertex="1">
                    <mxGeometry x="280" y="180" width="40" height="20" as="geometry"/>
                </mxCell>
                <mxCell id="11" value="No&lt;span style=&quot;color: rgba(0 , 0 , 0 , 0) ; font-family: monospace ; font-size: 0px&quot;&gt;%3CmxGraphModel%3E%3Croot%3E%3CmxCell%20id%3D%220%22%2F%3E%3CmxCell%20id%3D%221%22%20parent%3D%220%22%2F%3E%3CmxCell%20id%3D%222%22%20value%3D%22App%22%20style%3D%22rounded%3D1%3BwhiteSpace%3Dwrap%3Bhtml%3D1%3B%22%20vertex%3D%221%22%20parent%3D%221%22%3E%3CmxGeometry%20x%3D%22480%22%20y%3D%22170%22%20width%3D%22120%22%20height%3D%2260%22%20as%3D%22geometry%22%2F%3E%3C%2FmxCell%3E%3C%2Froot%3E%3C%2FmxGraphModel%3E&lt;/span&gt;" style="text;html=1;strokeColor=none;fillColor=none;align=center;verticalAlign=middle;whiteSpace=wrap;rounded=0;" parent="1" vertex="1">
                    <mxGeometry x="437.5" y="180" width="40" height="20" as="geometry"/>
                </mxCell>
                <mxCell id="Y6MugdShxAgaUpJ7odk5-67" value="" style="edgeStyle=orthogonalEdgeStyle;rounded=0;orthogonalLoop=1;jettySize=auto;html=1;fontSize=15;" parent="1" source="Y6MugdShxAgaUpJ7odk5-21" target="Y6MugdShxAgaUpJ7odk5-66" edge="1">
                    <mxGeometry relative="1" as="geometry"/>
                </mxCell>
                <mxCell id="Y6MugdShxAgaUpJ7odk5-21" value="Wallet_Screen" style="rounded=1;whiteSpace=wrap;html=1;" parent="1" vertex="1">
                    <mxGeometry x="-150" y="167.5" width="150" height="75" as="geometry"/>
                </mxCell>
                <mxCell id="Y6MugdShxAgaUpJ7odk5-47" style="edgeStyle=orthogonalEdgeStyle;rounded=0;orthogonalLoop=1;jettySize=auto;html=1;exitX=0;exitY=0.5;exitDx=0;exitDy=0;fontSize=15;" parent="1" source="Y6MugdShxAgaUpJ7odk5-31" target="Y6MugdShxAgaUpJ7odk5-41" edge="1">
                    <mxGeometry relative="1" as="geometry">
                        <mxPoint x="460" y="325" as="targetPoint"/>
                    </mxGeometry>
                </mxCell>
                <mxCell id="Y6MugdShxAgaUpJ7odk5-53" style="edgeStyle=orthogonalEdgeStyle;rounded=0;orthogonalLoop=1;jettySize=auto;html=1;fontSize=15;" parent="1" source="Y6MugdShxAgaUpJ7odk5-31" edge="1">
                    <mxGeometry relative="1" as="geometry">
                        <mxPoint x="770" y="340" as="targetPoint"/>
                    </mxGeometry>
                </mxCell>
                <mxCell id="Y6MugdShxAgaUpJ7odk5-31" value="&lt;meta charset=&quot;utf-8&quot;&gt;&lt;span style=&quot;color: rgb(240, 240, 240); font-family: helvetica; font-size: 12px; font-style: normal; font-weight: 400; letter-spacing: normal; text-align: center; text-indent: 0px; text-transform: none; word-spacing: 0px; background-color: rgb(42, 42, 42); display: inline; float: none;&quot;&gt;Check for cloud data availability&amp;nbsp;&lt;/span&gt;" style="shape=process;whiteSpace=wrap;html=1;backgroundOutline=1;rounded=1;glass=0;sketch=0;fontSize=15;" parent="1" vertex="1">
                    <mxGeometry x="530" y="295" width="160" height="90" as="geometry"/>
                </mxCell>
                <mxCell id="Y6MugdShxAgaUpJ7odk5-54" style="edgeStyle=orthogonalEdgeStyle;rounded=0;orthogonalLoop=1;jettySize=auto;html=1;entryX=0.475;entryY=0.018;entryDx=0;entryDy=0;fontSize=15;exitX=0.487;exitY=0.988;exitDx=0;exitDy=0;exitPerimeter=0;entryPerimeter=0;" parent="1" source="Y6MugdShxAgaUpJ7odk5-39" target="41" edge="1">
                    <mxGeometry relative="1" as="geometry">
                        <mxPoint x="843.416666666667" y="365" as="sourcePoint"/>
                        <mxPoint x="840" y="440" as="targetPoint"/>
                    </mxGeometry>
                </mxCell>
                <mxCell id="Y6MugdShxAgaUpJ7odk5-44" style="edgeStyle=orthogonalEdgeStyle;rounded=0;orthogonalLoop=1;jettySize=auto;html=1;entryX=0.5;entryY=1;entryDx=0;entryDy=0;fontSize=15;" parent="1" source="Y6MugdShxAgaUpJ7odk5-41" target="7" edge="1">
                    <mxGeometry relative="1" as="geometry">
                        <mxPoint x="297.5" y="325" as="sourcePoint"/>
                        <Array as="points">
                            <mxPoint x="175" y="340"/>
                        </Array>
                    </mxGeometry>
                </mxCell>
                <mxCell id="Y6MugdShxAgaUpJ7odk5-56" value="emptyWallet: true&lt;br&gt;initialized: undefined" style="text;html=1;strokeColor=#3700CC;fillColor=#6a00ff;align=center;verticalAlign=middle;whiteSpace=wrap;rounded=0;fontColor=#ffffff;" parent="1" vertex="1">
                    <mxGeometry x="190" y="295" width="120" height="40" as="geometry"/>
                </mxCell>
                <mxCell id="Y6MugdShxAgaUpJ7odk5-57" value="" style="shape=actor;whiteSpace=wrap;html=1;rounded=1;glass=0;sketch=0;fontSize=15;" parent="1" vertex="1">
                    <mxGeometry x="365" y="270" width="35" height="50" as="geometry"/>
                </mxCell>
                <mxCell id="Y6MugdShxAgaUpJ7odk5-41" value="Add new account&amp;nbsp;&lt;br&gt;onCreateWallet" style="text;html=1;align=center;verticalAlign=middle;resizable=0;points=[];autosize=1;strokeColor=none;fontSize=15;" parent="1" vertex="1">
                    <mxGeometry x="320" y="320" width="130" height="40" as="geometry"/>
                </mxCell>
                <mxCell id="Y6MugdShxAgaUpJ7odk5-39" value="Add existing account&amp;nbsp;&lt;br&gt;showRestoreSheet" style="text;html=1;align=center;verticalAlign=middle;resizable=0;points=[];autosize=1;strokeColor=none;fontSize=15;" parent="1" vertex="1">
                    <mxGeometry x="765" y="320" width="160" height="40" as="geometry"/>
                </mxCell>
                <mxCell id="Y6MugdShxAgaUpJ7odk5-58" value="" style="shape=actor;whiteSpace=wrap;html=1;rounded=1;glass=0;sketch=0;fontSize=15;" parent="1" vertex="1">
                    <mxGeometry x="825" y="270" width="35" height="50" as="geometry"/>
                </mxCell>
                <mxCell id="Y6MugdShxAgaUpJ7odk5-64" value="userCloudData" style="text;html=1;strokeColor=#3700CC;fillColor=#6a00ff;align=center;verticalAlign=middle;whiteSpace=wrap;rounded=0;fontColor=#ffffff;" parent="1" vertex="1">
                    <mxGeometry x="792.5" y="390" width="100" height="20" as="geometry"/>
                </mxCell>
                <mxCell id="39" style="edgeStyle=orthogonalEdgeStyle;rounded=0;orthogonalLoop=1;jettySize=auto;html=1;entryX=0.5;entryY=0;entryDx=0;entryDy=0;" edge="1" parent="1" source="Y6MugdShxAgaUpJ7odk5-66" target="12">
                    <mxGeometry relative="1" as="geometry"/>
                </mxCell>
                <mxCell id="Y6MugdShxAgaUpJ7odk5-66" value="Initialized" style="rhombus;whiteSpace=wrap;html=1;rounded=1;" parent="1" vertex="1">
                    <mxGeometry x="-117.5" y="390" width="85" height="80" as="geometry"/>
                </mxCell>
                <mxCell id="Y6MugdShxAgaUpJ7odk5-70" value="No&lt;span style=&quot;color: rgba(0 , 0 , 0 , 0) ; font-family: monospace ; font-size: 0px&quot;&gt;%3CmxGraphModel%3E%3Croot%3E%3CmxCell%20id%3D%220%22%2F%3E%3CmxCell%20id%3D%221%22%20parent%3D%220%22%2F%3E%3CmxCell%20id%3D%222%22%20value%3D%22App%22%20style%3D%22rounded%3D1%3BwhiteSpace%3Dwrap%3Bhtml%3D1%3B%22%20vertex%3D%221%22%20parent%3D%221%22%3E%3CmxGeometry%20x%3D%22480%22%20y%3D%22170%22%20width%3D%22120%22%20height%3D%2260%22%20as%3D%22geometry%22%2F%3E%3C%2FmxCell%3E%3C%2Froot%3E%3C%2FmxGraphModel%3E&lt;/span&gt;" style="text;html=1;strokeColor=none;fillColor=none;align=center;verticalAlign=middle;whiteSpace=wrap;rounded=0;" parent="1" vertex="1">
                    <mxGeometry x="-117.5" y="470" width="40" height="20" as="geometry"/>
                </mxCell>
                <mxCell id="12" value="InitializeWallet " style="swimlane;" vertex="1" parent="1">
                    <mxGeometry x="-220" y="539" width="470" height="270" as="geometry">
                        <mxRectangle x="-220" y="539" width="120" height="21" as="alternateBounds"/>
                    </mxGeometry>
                </mxCell>
                <mxCell id="15" value="createWallet" style="rounded=1;whiteSpace=wrap;html=1;" vertex="1" parent="12">
                    <mxGeometry x="157.5" y="210" width="80" height="35" as="geometry"/>
                </mxCell>
                <mxCell id="26" value="" style="edgeStyle=orthogonalEdgeStyle;rounded=0;orthogonalLoop=1;jettySize=auto;html=1;" edge="1" parent="12" source="18">
                    <mxGeometry relative="1" as="geometry">
                        <mxPoint x="310" y="90" as="targetPoint"/>
                    </mxGeometry>
                </mxCell>
                <mxCell id="36" style="edgeStyle=orthogonalEdgeStyle;rounded=0;orthogonalLoop=1;jettySize=auto;html=1;entryX=0.5;entryY=0;entryDx=0;entryDy=0;" edge="1" parent="12" source="18" target="15">
                    <mxGeometry relative="1" as="geometry"/>
                </mxCell>
                <mxCell id="18" value="existing&lt;br&gt;wallet" style="rhombus;whiteSpace=wrap;html=1;rounded=1;" vertex="1" parent="12">
                    <mxGeometry x="155" y="50" width="85" height="80" as="geometry"/>
                </mxCell>
                <mxCell id="22" value="&lt;font face=&quot;helvetica&quot;&gt;Yes&lt;/font&gt;" style="text;html=1;strokeColor=none;fillColor=none;align=center;verticalAlign=middle;whiteSpace=wrap;rounded=0;" vertex="1" parent="12">
                    <mxGeometry x="75" y="200" width="40" height="20" as="geometry"/>
                </mxCell>
                <mxCell id="23" value="&lt;font face=&quot;helvetica&quot;&gt;No&lt;/font&gt;" style="text;html=1;strokeColor=none;fillColor=none;align=center;verticalAlign=middle;whiteSpace=wrap;rounded=0;" vertex="1" parent="12">
                    <mxGeometry x="190" y="160" width="40" height="20" as="geometry"/>
                </mxCell>
                <mxCell id="29" value="&lt;font face=&quot;helvetica&quot;&gt;Yes&lt;/font&gt;" style="text;html=1;strokeColor=none;fillColor=none;align=center;verticalAlign=middle;whiteSpace=wrap;rounded=0;" vertex="1" parent="12">
                    <mxGeometry x="250" y="75" width="40" height="20" as="geometry"/>
                </mxCell>
                <mxCell id="35" style="edgeStyle=orthogonalEdgeStyle;rounded=0;orthogonalLoop=1;jettySize=auto;html=1;entryX=0;entryY=0.5;entryDx=0;entryDy=0;" edge="1" parent="12" source="31" target="18">
                    <mxGeometry relative="1" as="geometry"/>
                </mxCell>
                <mxCell id="31" value="Importing" style="rhombus;whiteSpace=wrap;html=1;rounded=1;" vertex="1" parent="12">
                    <mxGeometry x="20" y="45" width="85" height="80" as="geometry"/>
                </mxCell>
                <mxCell id="32" value="&lt;font face=&quot;helvetica&quot;&gt;No&lt;/font&gt;" style="text;html=1;strokeColor=none;fillColor=none;align=center;verticalAlign=middle;whiteSpace=wrap;rounded=0;" vertex="1" parent="12">
                    <mxGeometry x="115" y="65" width="40" height="20" as="geometry"/>
                </mxCell>
                <mxCell id="33" value="&lt;meta charset=&quot;utf-8&quot;&gt;&lt;span style=&quot;color: rgb(240, 240, 240); font-family: helvetica; font-size: 12px; font-style: normal; font-weight: 400; letter-spacing: normal; text-align: center; text-indent: 0px; text-transform: none; word-spacing: 0px; background-color: rgb(42, 42, 42); display: inline; float: none;&quot;&gt;return wallet address&lt;/span&gt;" style="rounded=0;whiteSpace=wrap;html=1;" vertex="1" parent="12">
                    <mxGeometry x="310" y="65" width="100" height="50" as="geometry"/>
                </mxCell>
                <mxCell id="34" style="edgeStyle=orthogonalEdgeStyle;rounded=0;orthogonalLoop=1;jettySize=auto;html=1;entryX=0;entryY=0.571;entryDx=0;entryDy=0;entryPerimeter=0;" edge="1" parent="12" source="31" target="15">
                    <mxGeometry relative="1" as="geometry">
                        <mxPoint x="60" y="230" as="targetPoint"/>
                        <Array as="points">
                            <mxPoint x="63" y="230"/>
                        </Array>
                    </mxGeometry>
                </mxCell>
                <mxCell id="44" value="" style="edgeStyle=orthogonalEdgeStyle;rounded=0;orthogonalLoop=1;jettySize=auto;html=1;" edge="1" parent="1" source="41" target="42">
                    <mxGeometry relative="1" as="geometry"/>
                </mxCell>
                <mxCell id="45" value="" style="edgeStyle=orthogonalEdgeStyle;rounded=0;orthogonalLoop=1;jettySize=auto;html=1;" edge="1" parent="1" source="41" target="43">
                    <mxGeometry relative="1" as="geometry"/>
                </mxCell>
                <mxCell id="41" value="&lt;span style=&quot;color: rgb(240 , 240 , 240) ; font-family: &amp;#34;helvetica&amp;#34; ; font-size: 12px ; font-style: normal ; font-weight: 400 ; letter-spacing: normal ; text-align: center ; text-indent: 0px ; text-transform: none ; word-spacing: 0px ; background-color: rgb(42 , 42 , 42) ; display: inline ; float: none&quot;&gt;Restore Sheet&lt;/span&gt;" style="shape=process;whiteSpace=wrap;html=1;backgroundOutline=1;rounded=1;glass=0;sketch=0;fontSize=15;" vertex="1" parent="1">
                    <mxGeometry x="760" y="455" width="162.5" height="75" as="geometry"/>
                </mxCell>
                <mxCell id="47" value="" style="edgeStyle=orthogonalEdgeStyle;rounded=0;orthogonalLoop=1;jettySize=auto;html=1;" edge="1" parent="1" source="42" target="46">
                    <mxGeometry relative="1" as="geometry"/>
                </mxCell>
                <mxCell id="50" style="edgeStyle=orthogonalEdgeStyle;rounded=0;orthogonalLoop=1;jettySize=auto;html=1;entryX=1;entryY=0.5;entryDx=0;entryDy=0;" edge="1" parent="1" source="42" target="12">
                    <mxGeometry relative="1" as="geometry">
                        <Array as="points">
                            <mxPoint x="605" y="674"/>
                        </Array>
                    </mxGeometry>
                </mxCell>
                <mxCell id="42" value="ImportSheet" style="rounded=1;whiteSpace=wrap;html=1;" vertex="1" parent="1">
                    <mxGeometry x="530" y="458.75" width="150" height="70" as="geometry"/>
                </mxCell>
                <mxCell id="43" value="iCloudBackup" style="rounded=1;whiteSpace=wrap;html=1;" vertex="1" parent="1">
                    <mxGeometry x="1020" y="456.25" width="150" height="72.5" as="geometry"/>
                </mxCell>
                <mxCell id="48" style="edgeStyle=orthogonalEdgeStyle;rounded=0;orthogonalLoop=1;jettySize=auto;html=1;entryX=0.5;entryY=0;entryDx=0;entryDy=0;" edge="1" parent="1" source="46" target="42">
                    <mxGeometry relative="1" as="geometry">
                        <Array as="points">
                            <mxPoint x="350" y="439"/>
                            <mxPoint x="605" y="439"/>
                        </Array>
                    </mxGeometry>
                </mxCell>
                <mxCell id="46" value="WalletProfile" style="rounded=1;whiteSpace=wrap;html=1;" vertex="1" parent="1">
                    <mxGeometry x="275" y="457.5" width="150" height="70" as="geometry"/>
                </mxCell>
                <mxCell id="51" value="&lt;span style=&quot;color: rgb(240 , 240 , 240) ; font-family: &amp;#34;helvetica&amp;#34; ; font-size: 12px ; font-style: normal ; font-weight: 400 ; letter-spacing: normal ; text-align: center ; text-indent: 0px ; text-transform: none ; word-spacing: 0px ; background-color: rgb(42 , 42 , 42) ; display: inline ; float: none&quot;&gt;isImporting = true&lt;/span&gt;" style="text;whiteSpace=wrap;html=1;" vertex="1" parent="1">
                    <mxGeometry x="370" y="650" width="100" height="30" as="geometry"/>
                </mxCell>
            </root>
        </mxGraphModel>
    </diagram>
</mxfile>